<svg width="24" height="21" viewBox="0 0 24 21" fill="none" xmlns="http://www.w3.org/2000/svg">
<g id="Group 3">
<path id="Portal" fill-rule="evenodd" clip-rule="evenodd" d="M8.87795 20.6875C8.8617 16.2052 5.22983 12.5766 0.751953 12.5766C5.23982 12.5766 8.87795 8.93169 8.87795 4.43555C8.89413 8.91789 12.5261 12.5465 17.004 12.5465C12.516 12.5465 8.87795 16.1914 8.87795 20.6875Z" fill="white"/>
<path id="Portal_2" fill-rule="evenodd" clip-rule="evenodd" d="M12.3743 7.28785C12.3679 5.53943 10.9513 4.12404 9.20459 4.12404C10.9552 4.12404 12.3743 2.70228 12.3743 0.948486C12.3806 2.6969 13.7973 4.11229 15.5439 4.11229C13.7934 4.11229 12.3743 5.53405 12.3743 7.28785Z" fill="white"/>
<path id="Portal_3" fill-rule="evenodd" clip-rule="evenodd" d="M18.7136 11.8746C18.7044 9.34914 16.6581 7.30469 14.1351 7.30469C16.6637 7.30469 18.7136 5.25103 18.7136 2.71777C18.7227 5.24326 20.769 7.28772 23.292 7.28772C20.7634 7.28772 18.7136 9.34137 18.7136 11.8746Z" fill="white"/>
</g>
</svg>
